<svg xmlns="http://www.w3.org/2000/svg" width="25" height="25" viewBox="0 0 25 25" fill="none"><path d="M7.5 16.25H18.75C19.4375 16.25 20 16.8125 20 17.5C20 18.1875 19.4375 18.75 18.75 18.75H6.25C5.5625 18.75 5 18.1875 5 17.5V5H2.5C1.8125 5 1.25 4.4375 1.25 3.75C1.25 3.0625 1.8125 2.5 2.5 2.5H6.25C6.9375 2.5 7.5 3.0625 7.5 3.75V6.25H23.75L18.75 15H7.5V16.25ZM6.875 20C7.9125 20 8.75 20.8375 8.75 21.875C8.75 22.9125 7.9125 23.75 6.875 23.75C5.8375 23.75 5 22.9125 5 21.875C5 20.8375 5.8375 20 6.875 20ZM18.125 20C19.1625 20 20 20.8375 20 21.875C20 22.9125 19.1625 23.75 18.125 23.75C17.0875 23.75 16.25 22.9125 16.25 21.875C16.25 20.8375 17.0875 20 18.125 20Z" fill="white"></path></svg>